<svg width="39" height="39" viewBox="0 0 39 39" fill="none" xmlns="http://www.w3.org/2000/svg">
<path d="M27.5353 21.0204C24.6837 22.3894 21.5028 19.4564 22.7296 16.4791C22.9774 15.8605 23.3942 15.324 23.9323 14.9308C24.4705 14.5377 25.1084 14.3039 25.7731 14.256C25.8153 14.2536 25.8554 14.2368 25.8867 14.2085C25.9181 14.1801 25.9388 14.1419 25.9454 14.1001C25.9519 14.0584 25.944 14.0156 25.9229 13.979C25.9018 13.9423 25.8688 13.914 25.8294 13.8988C20.5894 11.6182 16.0988 19.7272 22.3902 22.6989C23.3176 23.0599 24.3352 23.1197 25.2985 22.8698C26.2618 22.6198 27.122 22.0729 27.7569 21.3065C27.7842 21.2741 27.7995 21.2334 27.8004 21.1911C27.8013 21.1487 27.7876 21.1074 27.7617 21.0739C27.7358 21.0405 27.6991 21.0169 27.6579 21.0072C27.6168 20.9974 27.5735 21.0021 27.5353 21.0204Z" fill="#33005F"/>
<path d="M28.9967 17.0474C28.5775 16.8769 28.0923 16.5409 28.284 15.8191C28.3964 15.4062 28.6496 14.624 28.6522 14.6162C28.6666 14.5717 28.6635 14.5235 28.6436 14.4812C28.6237 14.4389 28.5885 14.4058 28.5451 14.3885C28.5017 14.3713 28.4533 14.3711 28.4098 14.3882C28.3663 14.4053 28.331 14.4382 28.3109 14.4804C28.3074 14.488 27.9541 15.2304 27.7521 15.6075C27.4018 16.2632 26.8004 16.1737 26.3906 16.0107C26.3462 15.9919 26.2962 15.9913 26.2513 16.009C26.2065 16.0267 26.1704 16.0612 26.1507 16.1052C26.1311 16.1493 26.1295 16.1992 26.1463 16.2444C26.1631 16.2896 26.197 16.3264 26.2406 16.3469C26.3672 16.4049 26.4904 16.4702 26.6095 16.5422C26.9023 16.7214 27.0139 17.1861 26.8873 17.6984C26.7961 18.0669 26.5757 18.8423 26.5734 18.8501C26.5617 18.8937 26.5665 18.9401 26.5868 18.9804C26.6071 19.0207 26.6414 19.0522 26.6834 19.0689C26.7253 19.0856 26.7719 19.0863 26.8143 19.0709C26.8568 19.0555 26.8921 19.0251 26.9136 18.9854C26.9173 18.9782 27.2896 18.2634 27.4765 17.9328C27.7364 17.4734 28.1367 17.2124 28.4725 17.2833C28.7819 17.3289 28.9939 17.5275 29.1084 17.2816C29.1243 17.2357 29.1215 17.1854 29.1006 17.1416C29.0797 17.0977 29.0424 17.0639 28.9967 17.0474Z" fill="#33005F"/>
<path d="M19.5118 24.3971C19.0925 24.2266 18.6074 23.8906 18.7991 23.1688C18.9114 22.7559 19.1647 21.9737 19.1672 21.9658C19.1817 21.9214 19.1787 21.873 19.1589 21.8307C19.139 21.7884 19.1038 21.7552 19.0603 21.7379C19.0168 21.7206 18.9684 21.7205 18.9249 21.7376C18.8814 21.7548 18.846 21.7878 18.826 21.8301C18.8224 21.8377 18.4692 22.58 18.2672 22.9573C17.9168 23.6128 17.3155 23.5235 16.9056 23.3601C16.8835 23.3502 16.8597 23.3448 16.8356 23.3442C16.8114 23.3435 16.7873 23.3477 16.7647 23.3563C16.7421 23.365 16.7215 23.378 16.7039 23.3946C16.6864 23.4113 16.6723 23.4312 16.6624 23.4533C16.6526 23.4754 16.6472 23.4992 16.6465 23.5234C16.6459 23.5476 16.65 23.5716 16.6587 23.5942C16.6674 23.6168 16.6804 23.6375 16.697 23.655C16.7137 23.6726 16.7336 23.6867 16.7557 23.6965C16.8822 23.7546 17.0054 23.8199 17.1246 23.8919C17.4173 24.0711 17.529 24.5357 17.4024 25.0481C17.3112 25.4166 17.0908 26.192 17.0884 26.1998C17.0768 26.2434 17.0816 26.2898 17.1018 26.3301C17.1221 26.3704 17.1565 26.4019 17.1984 26.4186C17.2404 26.4353 17.287 26.436 17.3294 26.4206C17.3718 26.4053 17.4072 26.3748 17.4287 26.3351C17.4324 26.3279 17.8046 25.6131 17.9915 25.2825C18.2514 24.8231 18.6517 24.5621 18.9876 24.6329C19.297 24.679 19.5089 24.8772 19.6235 24.6313C19.6394 24.5854 19.6366 24.5351 19.6157 24.4913C19.5948 24.4474 19.5574 24.4136 19.5118 24.3971Z" fill="#33005F"/>
<path d="M13.8789 13.4456C13.9643 12.8021 13.726 10.4968 13.6294 9.86398C13.5935 9.62884 13.269 9.69777 13.2412 9.90198C13.1514 10.5587 13.2728 12.8924 13.4579 13.4868C13.4712 13.5358 13.5013 13.5784 13.5431 13.6072C13.5848 13.636 13.6353 13.6491 13.6858 13.6442C13.7363 13.6393 13.7833 13.6166 13.8187 13.5803C13.854 13.5439 13.8754 13.4962 13.8789 13.4456Z" fill="#33005F"/>
<path d="M8.60886 19.1892C8.16578 19.2594 7.91885 19.3364 7.4795 19.427C7.1299 19.4991 6.6511 19.5117 6.39551 19.7777C6.373 19.7995 6.35646 19.8266 6.34749 19.8566C6.33852 19.8866 6.33742 19.9184 6.34429 19.9489C6.35116 19.9795 6.36578 20.0077 6.38672 20.031C6.40767 20.0542 6.43425 20.0717 6.46391 20.0817C6.80865 20.2062 7.25127 20.0141 7.60186 19.9454C8.0422 19.8591 8.28882 19.7807 8.7319 19.7105C9.07177 19.6566 8.9482 19.1355 8.60886 19.1892Z" fill="#33005F"/>
<path d="M9.75453 14.9497C8.87293 14.1118 8.4661 13.6173 7.63641 12.732C7.49147 12.5773 7.19287 12.77 7.32313 12.9556C8.018 13.9462 8.53716 14.4376 9.42833 15.2524C9.63764 15.4439 9.96375 15.1485 9.75453 14.9497Z" fill="#33005F"/>
<path d="M11.3429 13.9321C11.4618 14.0427 11.7289 13.9962 11.7126 13.7949C11.6936 13.5611 11.5656 13.3647 11.463 13.1565C11.3526 12.9323 11.2408 12.7088 11.1275 12.486C10.9907 12.2184 10.5955 12.4351 10.7188 12.7048C10.8167 12.919 10.9162 13.1324 11.0174 13.3451C11.1099 13.5406 11.1825 13.7827 11.3429 13.9321Z" fill="#33005F"/>
<path d="M8.84438 17.4666C8.89706 17.4815 8.95344 17.4752 9.0016 17.4492C9.04977 17.4232 9.08593 17.3795 9.10243 17.3273C9.11894 17.2752 9.1145 17.2186 9.09006 17.1696C9.06561 17.1207 9.02308 17.0831 8.97145 17.065C8.48848 16.8953 8.01433 16.7016 7.55078 16.4844C7.31336 16.3664 7.08718 16.7116 7.32673 16.8368C7.80779 17.1022 8.31678 17.3134 8.84438 17.4666Z" fill="#33005F"/>
<path d="M8.83547 22.7166C9.11667 22.4293 9.40281 22.145 9.6739 21.8481C9.84954 21.6558 9.58483 21.3592 9.39498 21.5475C9.10937 21.8307 8.83707 22.1284 8.56157 22.4215C8.38517 22.6088 8.65299 22.9031 8.83547 22.7166Z" fill="#33005F"/>
<path d="M10.4125 11.6936C10.8388 11.6176 10.7368 10.9819 10.3082 11.0432C9.88188 11.119 9.98395 11.7549 10.4125 11.6936Z" fill="#33005F"/>
<path d="M6.19688 15.742C5.7706 15.818 5.87259 16.4537 6.30115 16.3924C6.72751 16.3169 6.62537 15.6806 6.19688 15.742Z" fill="#33005F"/>
<path d="M7.87462 23.2295C7.44833 23.3055 7.55033 23.9412 7.97889 23.8799C8.40525 23.8041 8.30318 23.1682 7.87462 23.2295Z" fill="#33005F"/>
<path d="M5.92469 35.5816C8.96279 35.0648 12.5792 34.3673 15.6362 33.9546C15.6975 33.9463 15.7544 33.9181 15.7981 33.8744C15.8418 33.8306 15.8699 33.7737 15.8781 33.7124C15.8863 33.6511 15.8742 33.5888 15.8435 33.535C15.8129 33.4813 15.7654 33.4392 15.7085 33.415L13.3624 32.4184C13.105 32.3089 12.8214 32.2761 12.5457 32.324C11.693 32.4724 10.2708 32.8301 9.41841 32.9776C9.16001 31.7241 8.11919 30.8889 6.83441 31.0928C5.61544 24.3595 4.66598 17.5775 3.92824 10.7751C5.19532 10.4559 5.89763 9.41194 5.74548 8.1239C9.08168 7.55754 12.4346 7.10914 15.8042 6.7787C15.8117 7.08765 15.8957 7.38992 16.0488 7.6584C16.0741 7.70388 16.1114 7.74147 16.1568 7.76697C16.2021 7.79248 16.2536 7.80491 16.3056 7.80288C16.3576 7.80085 16.408 7.78443 16.4512 7.75546C16.4944 7.72649 16.5288 7.6861 16.5504 7.63879L17.7786 4.93091C17.797 4.89016 17.8045 4.84528 17.8002 4.80075C17.7959 4.75621 17.7801 4.71358 17.7542 4.67709C17.7283 4.64061 17.6933 4.61156 17.6526 4.59283C17.612 4.5741 17.5672 4.56636 17.5226 4.57036C13.6979 4.91996 9.88778 5.39671 6.09219 6.00061C4.60662 6.23849 3.10699 6.46026 1.63753 6.78652C1.57889 6.79498 1.52545 6.82481 1.48748 6.87027C1.4495 6.91574 1.42967 6.97364 1.4318 7.03284C2.34045 16.5468 3.78453 26.0258 5.65854 35.4001C5.66313 35.4299 5.67382 35.4585 5.68993 35.4841C5.70605 35.5096 5.72724 35.5316 5.7522 35.5486C5.77716 35.5656 5.80535 35.5773 5.83502 35.583C5.86469 35.5887 5.89521 35.5882 5.92469 35.5816Z" fill="#33005F"/>
<path d="M10.6588 20.7385C10.6914 20.7899 10.7377 20.8312 10.7925 20.8579C10.8472 20.8846 10.9083 20.8956 10.9689 20.8897C11.0295 20.8838 11.0873 20.8612 11.1358 20.8244C11.1844 20.7877 11.2218 20.7382 11.244 20.6814L13.3832 15.182C13.4052 15.125 13.4109 15.063 13.3997 15.0029C13.3885 14.9428 13.3608 14.887 13.3197 14.8418C13.2786 14.7965 13.2258 14.7636 13.1671 14.7466C13.1084 14.7296 13.0461 14.7293 12.9872 14.7457C10.4504 15.3766 9.19249 18.5229 10.6588 20.7385Z" fill="#33005F"/>
<path d="M20.2648 2.07964C20.2082 2.05671 20.1452 2.05551 20.0877 2.07625C20.0303 2.097 19.9826 2.13824 19.9537 2.19204C19.6072 2.94156 19.2646 3.69294 18.9259 4.4462C16.4845 9.80261 13.8479 16.3688 11.7537 21.9027C10.7946 24.4715 9.86957 27.0519 8.97875 29.6437C8.96731 29.6727 8.96196 29.7037 8.96302 29.7348C8.96409 29.766 8.97154 29.7965 8.98493 29.8246C8.99832 29.8528 9.01735 29.8778 9.04084 29.8983C9.06433 29.9187 9.09178 29.9341 9.12148 29.9435C12.0754 31.0547 15.7359 32.4856 18.6793 33.7136C21.1923 34.77 23.6812 35.8836 26.1302 37.0841C26.2974 37.1514 26.5061 37.1429 26.5862 36.9402C29.8477 27.6697 33.5007 18.5492 37.5454 9.57871C37.56 9.54747 37.5682 9.51358 37.5694 9.4791C37.5706 9.44461 37.5647 9.41025 37.5523 9.37808C37.5398 9.3459 37.5209 9.3166 37.4968 9.29192C37.4727 9.26724 37.4438 9.24771 37.4119 9.23451C31.8218 6.56904 26.1155 4.11416 20.2648 2.07964ZM34.1515 12.4004C31.9106 17.4219 26.8113 30.339 26.3167 31.6955C25.0572 31.1908 23.5579 31.8986 22.9975 33.1287C19.9212 31.7502 16.7415 30.6179 13.5848 29.4403C14.0061 28.19 13.5133 26.9057 12.2632 26.4198C14.6766 19.7921 17.3546 13.2605 20.2321 6.82113C21.5263 7.1949 22.6938 6.63067 23.2275 5.40487C26.4921 6.63394 29.7101 7.97681 32.8816 9.43348C32.2341 10.6271 32.9751 11.9691 34.1515 12.4007V12.4004Z" fill="#33005F"/>
</svg>
